<?xml version="1.0" standalone="no"?><!DOCTYPE svg PUBLIC "-//W3C//DTD SVG 1.1//EN" "http://www.w3.org/Graphics/SVG/1.1/DTD/svg11.dtd"><svg t="1711952433111" class="icon" viewBox="0 0 1024 1024" version="1.1" xmlns="http://www.w3.org/2000/svg" p-id="5139" xmlns:xlink="http://www.w3.org/1999/xlink" width="200" height="200"><path d="M64 79.93595A79.87195 79.87195 0 0 1 143.83995 0h593.087629L959.99944 226.623858v717.279552A79.99995 79.99995 0 0 1 879.71149 1023.99936H144.28795A80.15995 80.15995 0 0 1 64 944.06341V79.93595z" fill="#74B3F8" p-id="5140"></path><path d="M958.463441 224.09586H816.31953A80.31995 80.31995 0 0 1 735.99958 143.80791V0l222.463861 224.09586z" fill="#C4DFFB" p-id="5141"></path><path d="M443.455763 410.495743s-30.975981-31.39198-72.991955-5.759996c-37.599977 24.479985-30.943981 69.279957-30.94398 69.279957S255.99988 491.135693 255.99988 580.863637c1.855999 89.599944 90.687943 90.527943 90.687943 90.527943l133.343917 0.128v-95.93594h-63.93596l95.93594-95.93594 95.90394 95.93594H543.9997v95.93594l129.471919-0.16s82.655948 0.064 94.271941-85.183946c5.535997-93.247942-79.90395-111.61593-79.90395-111.615931s9.727994-138.015914-110.239931-153.759903c-102.847936-11.007993-134.143916 89.695944-134.143916 89.695943z" fill="#FFFFFF" p-id="5142"></path></svg>